<mxfile host="drawio-plugin" modified="2022-09-07T07:18:17.298Z" agent="5.0 (Windows NT 6.2; Win64; x64) AppleWebKit/537.36 (KHTML, like Gecko) Chrome/98.0.4758.102 Safari/537.36" version="15.5.4" etag="sqgjW6fibhAYMSyanepN" type="embed"><diagram id="rXUjyGa08FUE6ubBvnaf" name="Page-1"><mxGraphModel dx="1010" dy="763" grid="0" gridSize="10" guides="1" tooltips="1" connect="1" arrows="1" fold="1" page="0" pageScale="1" pageWidth="850" pageHeight="1100" math="0" shadow="0"><root><mxCell id="0"/><mxCell id="1" parent="0"/><mxCell id="5" style="edgeStyle=orthogonalEdgeStyle;rounded=0;orthogonalLoop=1;jettySize=auto;html=1;exitX=0.5;exitY=1;exitDx=0;exitDy=0;fontSize=16;" edge="1" parent="1" source="3" target="4"><mxGeometry relative="1" as="geometry"/></mxCell><mxCell id="3" value="«interface»&lt;br&gt;&lt;b&gt;People&lt;/b&gt;" style="html=1;fontSize=16;fillColor=#d5e8d4;strokeColor=#82b366;" vertex="1" parent="1"><mxGeometry x="35" y="90" width="126" height="64" as="geometry"/></mxCell><mxCell id="4" value="«class»&lt;br&gt;&lt;b&gt;Student&lt;/b&gt;" style="html=1;fontSize=16;fillColor=#d5e8d4;strokeColor=#82b366;" vertex="1" parent="1"><mxGeometry x="35" y="224" width="126" height="64" as="geometry"/></mxCell><mxCell id="7" value="«interface»&lt;br&gt;&lt;b&gt;People&lt;/b&gt;" style="html=1;fontSize=16;fillColor=#d5e8d4;strokeColor=#82b366;" vertex="1" parent="1"><mxGeometry x="313" y="92" width="126" height="64" as="geometry"/></mxCell><mxCell id="8" value="«class»&lt;br&gt;&lt;b&gt;Student&lt;/b&gt;" style="html=1;fontSize=16;fillColor=#d5e8d4;strokeColor=#82b366;" vertex="1" parent="1"><mxGeometry x="313" y="226" width="126" height="64" as="geometry"/></mxCell><mxCell id="11" value="" style="edgeStyle=orthogonalEdgeStyle;rounded=0;orthogonalLoop=1;jettySize=auto;html=1;fontSize=14;" edge="1" parent="1" source="9" target="10"><mxGeometry relative="1" as="geometry"/></mxCell><mxCell id="18" style="edgeStyle=orthogonalEdgeStyle;rounded=0;orthogonalLoop=1;jettySize=auto;html=1;exitX=1;exitY=0.5;exitDx=0;exitDy=0;fontSize=16;" edge="1" parent="1" source="9" target="17"><mxGeometry relative="1" as="geometry"/></mxCell><mxCell id="9" value="&lt;font style=&quot;font-size: 14px&quot;&gt;Proxy&lt;br&gt;#newProxyInstance()&lt;/font&gt;" style="rounded=0;whiteSpace=wrap;html=1;fontSize=16;fillColor=#dae8fc;strokeColor=#6c8ebf;" vertex="1" parent="1"><mxGeometry x="527" y="94" width="170" height="60" as="geometry"/></mxCell><mxCell id="13" value="" style="edgeStyle=orthogonalEdgeStyle;rounded=0;orthogonalLoop=1;jettySize=auto;html=1;fontSize=14;" edge="1" parent="1" source="10" target="12"><mxGeometry relative="1" as="geometry"/></mxCell><mxCell id="19" style="edgeStyle=orthogonalEdgeStyle;rounded=0;orthogonalLoop=1;jettySize=auto;html=1;exitX=1;exitY=0.5;exitDx=0;exitDy=0;entryX=0;entryY=0.5;entryDx=0;entryDy=0;fontSize=16;" edge="1" parent="1" source="10" target="17"><mxGeometry relative="1" as="geometry"/></mxCell><mxCell id="10" value="&lt;font style=&quot;font-size: 14px&quot;&gt;ProxyGenerator&lt;br&gt;#generatorProxyClass()&lt;/font&gt;" style="rounded=0;whiteSpace=wrap;html=1;fontSize=16;fillColor=#dae8fc;strokeColor=#6c8ebf;" vertex="1" parent="1"><mxGeometry x="527" y="198" width="170" height="60" as="geometry"/></mxCell><mxCell id="21" style="edgeStyle=orthogonalEdgeStyle;rounded=0;orthogonalLoop=1;jettySize=auto;html=1;exitX=0.5;exitY=1;exitDx=0;exitDy=0;fontSize=16;" edge="1" parent="1" source="12" target="15"><mxGeometry relative="1" as="geometry"/></mxCell><mxCell id="12" value="&lt;font style=&quot;font-size: 16px&quot;&gt;$ProxyPeople&lt;/font&gt;" style="rounded=0;whiteSpace=wrap;html=1;fontSize=16;fillColor=#ffe6cc;strokeColor=#d79b00;" vertex="1" parent="1"><mxGeometry x="527" y="302" width="170" height="60" as="geometry"/></mxCell><mxCell id="20" style="edgeStyle=orthogonalEdgeStyle;rounded=0;orthogonalLoop=1;jettySize=auto;html=1;exitX=1;exitY=0.5;exitDx=0;exitDy=0;fontSize=16;dashed=1;" edge="1" parent="1" source="15" target="17"><mxGeometry relative="1" as="geometry"/></mxCell><mxCell id="22" style="edgeStyle=orthogonalEdgeStyle;rounded=0;orthogonalLoop=1;jettySize=auto;html=1;exitX=0;exitY=0.5;exitDx=0;exitDy=0;entryX=1;entryY=0.5;entryDx=0;entryDy=0;fontSize=16;" edge="1" parent="1" source="15" target="8"><mxGeometry relative="1" as="geometry"/></mxCell><mxCell id="15" value="&lt;span style=&quot;font-size: 14px&quot;&gt;PeopleHandler&lt;br&gt;invoke()&lt;br&gt;&lt;/span&gt;" style="rounded=0;whiteSpace=wrap;html=1;fontSize=16;fillColor=#f8cecc;strokeColor=#b85450;" vertex="1" parent="1"><mxGeometry x="527" y="415" width="170" height="60" as="geometry"/></mxCell><mxCell id="17" value="«interface»&lt;br&gt;&lt;b&gt;InvocationHandler&lt;/b&gt;" style="html=1;fontSize=16;fillColor=#d5e8d4;strokeColor=#82b366;" vertex="1" parent="1"><mxGeometry x="787" y="143" width="190" height="64" as="geometry"/></mxCell><mxCell id="23" value="" style="shape=singleArrow;whiteSpace=wrap;html=1;fontSize=16;fillColor=#e1d5e7;strokeColor=#9673a6;" vertex="1" parent="1"><mxGeometry x="187" y="154" width="100" height="60" as="geometry"/></mxCell></root></mxGraphModel></diagram></mxfile>